<?xml version="1.0" encoding="UTF-8"?>
<svg width="14px" height="14px" viewBox="0 0 14 14" version="1.1" xmlns="http://www.w3.org/2000/svg" xmlns:xlink="http://www.w3.org/1999/xlink">
    <!-- Generator: Sketch 53.2 (72643) - https://sketchapp.com -->
    <title>article-note-logo@2x</title>
    <desc>Created with Sketch.</desc>
    <g id="UI" stroke="none" stroke-width="1" fill="none" fill-rule="evenodd" fill-opacity="0.26">
        <g id="pf_gallery_pc" transform="translate(-70.000000, -938.000000)" fill="#323237" fill-rule="nonzero">
            <g id="Group-2" transform="translate(70.000000, 938.000000)">
                <path d="M2.64395562,12.1832396 L11.4707187,12.1832396 L11.4707187,1.76302174 L5.0974808,1.76302174 C5.03788541,1.77010384 4.98251225,1.79738025 4.94057606,1.84031185 C4.19158676,2.64589553 3.44811213,3.45658894 2.71020429,4.27233527 C2.66773526,4.32965782 2.64490765,4.39915976 2.64511788,4.47050014 L2.64395562,12.1832396 Z M12.3534532,0.000458530429 C12.8410679,0.000779329675 13.2361877,0.396159229 13.2361876,0.883774084 L13.2361876,13.0659741 C13.2358668,13.5535888 12.8404869,13.9487086 12.352872,13.9487085 L1.76180233,13.9487085 C1.27418747,13.9487086 0.878807571,13.5535888 0.878486772,13.0659741 C0.877905643,12.9700878 0.877324515,4.48502835 0.875,4.14971712 C0.866073518,3.82074752 0.99057716,3.50215234 1.22019042,3.26640157 L3.87943514,0.36773184 C4.08745685,0.126023743 4.39343264,-0.00892161931 4.7121925,0.000458530429 L12.3534532,0.000458530429 Z" id="Shape"></path>
                <path d="M4.40884334,6.14240727 C4.01948715,6.14240727 3.70277203,5.82569216 3.70277203,5.43633596 C3.70277203,5.04697976 4.01948715,4.73084577 4.40884334,4.73084577 L5.6106174,4.73084577 L5.6106174,3.52790946 C5.62598988,3.14909407 5.93756154,2.84990966 6.31668872,2.84990966 C6.69581589,2.84990966 7.00738755,3.14909407 7.02276003,3.52790946 L7.02276003,5.43633596 C7.02276003,5.82569216 6.70604491,6.14240727 6.31668872,6.14240727 L4.40884334,6.14240727 L4.40884334,6.14240727 Z" id="Path"></path>
            </g>
        </g>
    </g>
</svg>