<?xml version="1.0" encoding="UTF-8"?>
<svg width="16px" height="16px" viewBox="0 0 16 16" version="1.1" xmlns="http://www.w3.org/2000/svg" xmlns:xlink="http://www.w3.org/1999/xlink">
    <!-- Generator: Sketch 53.2 (72643) - https://sketchapp.com -->
    <title>note-logo@2x</title>
    <desc>Created with Sketch.</desc>
    <g id="UI" stroke="none" stroke-width="1" fill="none" fill-rule="evenodd">
        <g id="pf_gallery_pc" transform="translate(-30.000000, -938.000000)" fill="#41C9B4" fill-rule="nonzero">
            <g id="Group-2" transform="translate(30.000000, 938.000000)">
                <path d="M3.02166357,13.9237024 L13.1093929,13.9237024 L13.1093929,2.01488199 L5.82569234,2.01488199 C5.75758333,2.02297582 5.69429972,2.05414885 5.64637264,2.10321354 C4.79038487,3.02388061 3.94069958,3.95038736 3.09737633,4.88266887 C3.0488403,4.94818037 3.0227516,5.02761115 3.02299186,5.10914301 L3.02166357,13.9237024 Z M14.1182322,0.000524034776 C14.6755062,0.000890662486 15.1270717,0.452753405 15.1270715,1.01002753 L15.1270715,14.9325418 C15.1267049,15.4898158 14.6748422,15.9413812 14.117568,15.9413811 L2.01348837,15.9413811 C1.45621425,15.9413812 1.00435151,15.4898158 1.00398488,14.9325418 C1.00332074,14.8229575 1.00265659,5.12574669 1,4.74253385 C0.989798306,4.3665686 1.13208818,4.00245982 1.39450334,3.73303036 L4.43364016,0.42026496 C4.67137925,0.144027135 5.02106588,-0.0101961363 5.38536286,0.000524034776 L14.1182322,0.000524034776 Z" id="Shape"></path>
                <path d="M5.03867811,7.01989403 C4.5936996,7.01989403 4.23173946,6.65793389 4.23173946,6.21295538 C4.23173946,5.76797687 4.5936996,5.40668088 5.03867811,5.40668088 L6.41213417,5.40668088 L6.41213417,4.03189653 C6.42970272,3.59896465 6.78578462,3.25703962 7.21907282,3.25703962 C7.65236102,3.25703962 8.00844292,3.59896465 8.02601146,4.03189653 L8.02601146,6.21295538 C8.02601146,6.65793389 7.66405133,7.01989403 7.21907282,7.01989403 L5.03867811,7.01989403 L5.03867811,7.01989403 Z" id="Path"></path>
            </g>
        </g>
    </g>
</svg>