<?xml version="1.0" encoding="UTF-8"?>
<svg width="60px" height="60px" viewBox="0 0 60 60" version="1.1" xmlns="http://www.w3.org/2000/svg" xmlns:xlink="http://www.w3.org/1999/xlink">
    <!-- Generator: Sketch 53.2 (72643) - https://sketchapp.com -->
    <title>pf-logo</title>
    <desc>Created with Sketch.</desc>
    <g id="UI" stroke="none" stroke-width="1" fill="none" fill-rule="evenodd">
        <g id="pf_logo">
            <g id="pf-logo">
                <rect id="Rectangle" fill="#323237" x="0" y="0" width="60" height="60" rx="2"></rect>
                <path d="M22.8116748,19.0813294 C22.8116748,16.7867965 21.3119574,15.6464584 18.3124777,15.6602809 C17.6628208,15.6602809 17.2965304,15.8607039 17.2135954,16.2615561 C17.1859505,16.3859585 17.1928616,16.6347595 17.2343291,17.0079667 C17.2757965,17.3811738 17.2965299,17.6576194 17.2965299,17.8373118 C17.2965299,18.0170041 17.2619742,18.6320956 17.1928618,19.6826046 C17.1237494,20.7331136 17.1030159,21.5278947 17.1306609,22.0669717 L17.0269928,23.7463956 C17.0269928,24.5480998 17.1444822,25.0318796 17.3794644,25.1977495 C17.7250266,25.3359743 18.236451,25.3774412 18.9137529,25.3221512 C20.6415638,25.1839264 21.7127905,24.72088 22.1274651,23.9329982 C22.293335,23.615081 22.4592023,23.2764351 22.6250722,22.9170505 C22.790942,22.5576658 22.8669646,21.8596407 22.8531421,20.8229541 C22.8254971,19.7724451 22.8116748,19.1919093 22.8116748,19.0813294 Z M28.4097542,17.8165781 C28.4097542,18.0653829 28.4166653,18.7772303 28.4304878,19.9521418 C28.4719553,23.1036689 28.209332,25.3774339 27.64261,26.7735052 C26.7026809,29.095683 24.5533163,30.4433553 21.1944519,30.8165625 C20.9732921,30.8442075 20.4065786,30.8096518 19.4942944,30.7128943 C18.5820103,30.6161369 18.0152968,30.6506926 17.794137,30.8165625 C17.3103499,31.0100773 17.1099269,31.7633916 17.1928618,33.0765279 C17.2343293,33.7538297 17.2550627,34.161587 17.2550627,34.2998119 C17.2550627,34.4380368 17.2965295,34.9494611 17.3794644,35.8341003 C17.4623994,36.7187395 17.4209325,37.3683867 17.2550627,37.7830613 C16.9924354,38.1977359 16.5708559,38.3843367 15.9903114,38.3428692 C15.8106191,38.3290467 15.5341735,38.294491 15.1609663,38.2392011 C14.5804219,38.1562662 13.9307747,38.1562662 13.2120054,38.2392011 C12.493236,38.3359585 12.0371008,38.2392025 11.8435859,37.9489303 C11.6500711,37.6448356 11.5394929,37.2439895 11.5118479,36.7463799 C11.4842029,36.2487704 11.5049364,35.688968 11.5740488,35.0669561 C11.6431612,34.4725891 11.6708058,33.9680759 11.6569833,33.5534013 C11.6431608,33.1387267 11.6638942,31.4109417 11.7191842,28.3699945 C11.7882966,25.1078874 11.7606521,20.6985801 11.6362497,15.1419402 C11.5671372,12.100993 11.7468269,10.4492305 12.175324,10.1866033 C12.4517737,10.0345559 12.8664421,9.97926679 13.4193416,10.0207342 C13.9722411,10.0622017 15.4996031,10.0829351 18.0014733,10.0829351 C20.5033435,10.0829351 22.4730184,10.2902693 23.9105571,10.704944 C25.3480958,11.1196186 26.4538782,11.9765999 27.2279374,13.2759137 C28.0158192,14.5752276 28.4097542,16.0887672 28.4097542,17.8165781 Z M34.2981044,10.6220094 C34.2981044,10.2073348 34.920107,10.0414675 36.1641308,10.1244024 C37.4081547,10.2073373 38.3204252,10.2488042 38.9009696,10.2488042 C39.4953366,10.2488042 40.9190314,10.2833599 43.1720969,10.3524723 C43.5176591,10.3662948 44.3953738,10.2902722 45.8052676,10.1244024 C47.2151613,9.95853254 48.0790538,9.95853254 48.396971,10.1244024 C49.0328054,10.2626273 49.3990958,10.6980291 49.4958532,11.4306209 C49.5096757,11.6379582 49.4889423,11.9973375 49.4336523,12.5087695 C49.3783624,13.0202016 49.3438067,13.3312029 49.3299842,13.4417828 L49.3714515,14.5613986 C49.3714515,15.307813 48.853116,15.6810145 47.8164294,15.6810145 L46.613879,15.5566128 C45.9918671,15.5013228 45.0657743,15.5151451 43.835573,15.59808 C42.6053716,15.6810149 41.6516343,15.7086595 40.9743324,15.6810145 C40.2970305,15.6533695 39.9307401,15.6879252 39.8754501,15.7846827 C39.8201602,15.8952626 39.7925156,16.0956856 39.7925156,16.3859578 L39.8754501,18.0239144 C39.7925152,20.3460923 39.8478043,21.5071638 40.0413191,21.5071638 C41.2300531,21.5624538 42.4187691,21.5555426 43.6075031,21.4864302 C44.8100595,21.4173177 45.577196,21.382762 45.9089357,21.382762 C46.2406754,21.382762 46.5240321,21.3965843 46.7590144,21.4242293 C46.9939967,21.4656968 47.1667752,21.6108307 47.2773551,21.8596355 C47.387935,22.1084402 47.436313,22.295041 47.4224905,22.4194434 L47.4224905,23.4561248 C47.4224905,23.5943496 47.4294016,23.856973 47.4432241,24.2440026 C47.4570466,24.6310323 47.4570466,24.8867444 47.4432241,25.0111468 C47.4294016,25.1217267 47.4086682,25.3152386 47.3810232,25.5916884 C47.3533783,25.8681381 47.2428,26.1169392 47.0492852,26.338099 C46.8557704,26.5592588 46.6277028,26.6905704 46.3650755,26.7320379 C46.0886257,26.7596829 45.7776244,26.7596829 45.4320623,26.7320379 C45.0865001,26.7043929 44.588898,26.7043929 43.9392411,26.7320379 C43.2895842,26.7596829 42.5086254,26.7735052 41.5963412,26.7735052 C40.684057,26.7735052 40.1726327,26.8011497 40.0620528,26.8564397 C39.9652954,26.9117296 39.9169174,27.7065107 39.9169174,29.2408068 L39.8754501,32.5581872 L39.8754501,35.2742924 C39.8754501,35.4125172 39.9100058,35.695874 39.9791183,36.1243711 C40.2002781,37.4927973 39.9652993,38.2253782 39.2741749,38.3221356 C39.0806601,38.3497806 38.8318591,38.3359583 38.5277644,38.2806683 C38.2236696,38.2253784 38.0163354,38.1977338 37.9057555,38.1977338 L34.6091088,38.3221356 C34.4017715,38.3221356 34.2704598,36.7187511 34.2151699,33.511934 C34.1598799,30.305117 34.1667911,27.098348 34.2359035,23.8915309 C34.3050159,20.6847139 34.3672162,18.7495947 34.4225061,18.0861153 C34.4777961,17.3949909 34.4916184,16.2892085 34.4639734,14.7687349 C34.4225059,13.2482613 34.3948614,12.2115903 34.3810389,11.6586908 L34.2981044,10.6220094 Z" id="PF" fill="#FFFFFF" fill-rule="nonzero"></path>
                <path d="M8.91154035,44.9682617 L8.90128645,46.0141602 C8.90128645,46.4243185 8.89786851,46.7233877 8.89103254,46.911377 C8.88419657,47.0959482 8.89445037,47.2019042 8.92179426,47.229248 C8.94913815,47.2565919 8.96793679,47.2770995 8.97819074,47.2907715 C8.99869866,47.3181154 9.12858017,47.3317871 9.36783918,47.3317871 L10.0651048,47.3317871 C10.2872739,47.3317871 10.4274092,47.3198243 10.485515,47.2958984 C10.5436207,47.2719725 10.5760911,47.2309573 10.5829271,47.1728516 C10.589763,47.1181638 10.593181,47.0754396 10.593181,47.0446777 C10.593181,47.0139159 10.5829272,46.9301765 10.5624193,46.793457 C10.5419113,46.6567376 10.5436203,46.3063993 10.5675462,45.7424316 C10.5914721,45.178464 10.6034349,44.8264167 10.6034349,44.6862793 C10.6034349,44.5461419 10.7845854,44.5017087 11.1468919,44.5529785 C11.3075373,44.5769044 11.3981125,44.5888672 11.4186204,44.5888672 C11.4391283,44.5888672 11.5143229,44.5837403 11.6442064,44.5734863 C11.7740898,44.5632324 11.8766279,44.5888669 11.9518236,44.6503906 C12.0270192,44.7153324 12.0475269,44.8605946 12.013347,45.0861816 C11.9757492,45.3083507 11.9535326,45.450195 11.9466966,45.5117188 C11.9398606,45.5732425 11.9415696,45.913327 11.9518236,46.5319824 C11.9620775,47.1540558 11.9672044,47.7299778 11.9672044,48.2597656 C11.9672044,48.7895534 11.9689134,49.2697732 11.9723314,49.7004395 C11.9757494,50.1276877 11.9757494,50.3994135 11.9723314,50.515625 C11.9689134,50.6318365 11.9774582,50.7822256 11.9979661,50.9667969 C12.0184741,51.1513681 12.0150561,51.2949214 11.9877122,51.3974609 C11.9364424,51.4794926 11.7467471,51.5273437 11.4186204,51.5410156 C11.0904938,51.5546876 10.8734549,51.5427248 10.7674974,51.505127 C10.6615398,51.4675291 10.6034349,51.4111332 10.593181,51.3359375 C10.579509,51.2607418 10.582927,51.1718755 10.6034349,51.0693359 C10.6102709,50.9052726 10.6102709,50.573733 10.6034349,50.074707 C10.5965989,49.5756811 10.5948899,49.2543952 10.5983079,49.1108398 C10.6017259,48.9672844 10.6034349,48.8664554 10.6034349,48.8083496 C10.6034349,48.6408683 10.4137395,48.5708006 10.0343431,48.5981445 C9.89420567,48.6083985 9.8036304,48.6135254 9.76261457,48.6135254 C9.72159874,48.6135254 9.63785935,48.6083985 9.51139387,48.5981445 C9.2140291,48.5742186 9.03287857,48.5810545 8.96793684,48.6186523 C8.90299511,48.6562502 8.87052473,48.7622062 8.87052473,48.9365234 L8.88077864,49.3261719 C8.87394266,49.3261719 8.87394266,49.476561 8.88077864,49.7773438 L8.88077864,50.2285156 L8.90128645,51.1103516 C8.90128645,51.247071 8.88590574,51.3427732 8.85514387,51.3974609 C8.82779998,51.4521487 8.71842608,51.4931639 8.52701887,51.5205078 C8.33561166,51.5478517 8.13737146,51.5461427 7.93229231,51.5153809 C7.72721316,51.484619 7.60758545,51.4504396 7.57340559,51.4128418 C7.53580774,51.375244 7.51871807,51.322266 7.52213606,51.2539062 C7.54947994,50.7172825 7.54606201,49.956792 7.51188215,48.9724121 C7.47770229,47.9846142 7.46573952,47.3334977 7.47599348,47.019043 C7.48624744,46.7045883 7.49308331,46.4448252 7.49650129,46.2397461 C7.49991928,46.0346669 7.50333721,45.8039564 7.5067552,45.5476074 C7.51017318,45.2912585 7.51188215,45.1152349 7.51188215,45.0195312 C7.51188215,44.9238276 7.51359112,44.855469 7.5170091,44.8144531 C7.5170091,44.7734373 7.52213601,44.734131 7.53238996,44.6965332 C7.54264392,44.6555174 7.58878604,44.6110842 7.6708177,44.5632324 C7.75626734,44.5119626 8.06046352,44.5136716 8.58341535,44.5683594 C8.70304486,44.5922853 8.77482148,44.6162108 8.79874739,44.6401367 C8.82267329,44.6640626 8.84147193,44.6794433 8.85514387,44.6862793 C8.86881581,44.6931153 8.87736065,44.7102049 8.88077864,44.7375488 C8.88761461,44.7648927 8.89274151,44.7819824 8.89615949,44.7888184 C8.90641345,44.8127443 8.91154035,44.8725581 8.91154035,44.9682617 Z M15.94572,47.0600586 C15.9252121,47.0600586 15.8585624,47.2753885 15.7457689,47.7060547 C15.6329753,48.1367209 15.5697435,48.3964839 15.5560716,48.4853516 C15.5423997,48.5742192 15.5423997,48.6254882 15.5560716,48.6391602 C15.5697435,48.6494141 15.6432291,48.654541 15.7765306,48.654541 L16.2840989,48.6750488 C16.3729666,48.6750488 16.4293625,48.6579592 16.4532884,48.6237793 C16.4772143,48.5895994 16.443035,48.4426283 16.3507493,48.1828613 C16.2618817,47.9230944 16.2140306,47.7829591 16.2071947,47.7624512 C16.114909,47.2941871 16.0277517,47.0600586 15.94572,47.0600586 Z M15.3048509,44.5786133 C15.3834646,44.5786133 15.5492344,44.5683595 15.8021654,44.5478516 C16.0550963,44.5273436 16.2430827,44.5239257 16.3661302,44.5375977 C16.4857597,44.5512696 16.5797529,44.5922848 16.6481126,44.6606445 C16.7198903,44.7290042 16.7660324,44.7973629 16.7865404,44.8657227 C16.8070483,44.9272464 16.8292648,45.0297844 16.8531907,45.1733398 C16.8771166,45.3168952 16.8959153,45.4091795 16.9095872,45.4501953 L17.6017259,48.0649414 C17.9435245,49.360358 18.1708171,50.2421852 18.2836107,50.7104492 C18.2972826,50.751465 18.3348799,50.8437493 18.3964036,50.9873047 C18.5057792,51.2436536 18.4903985,51.4111324 18.3502611,51.4897461 C18.3331711,51.523926 18.2323421,51.5256349 18.0477708,51.494873 C17.8631996,51.4641112 17.7538257,51.4487305 17.7196458,51.4487305 L17.3658861,51.5 C17.3214522,51.5 17.2667653,51.4897462 17.2018236,51.4692383 C17.0651041,51.3803706 16.9625661,51.0368682 16.8942064,50.4387207 C16.8634445,50.1652818 16.7814141,49.997803 16.6481126,49.9362793 C16.6276047,49.9157714 16.5524101,49.9123534 16.4225267,49.9260254 C16.2926432,49.9396973 16.1507989,49.9465332 15.9969896,49.9465332 C15.8431802,49.9465332 15.6876642,49.9396973 15.5304368,49.9260254 C15.3732095,49.9123534 15.2689625,49.937988 15.2176927,50.0029297 C15.1698409,50.0644534 15.1390795,50.1157225 15.1254075,50.1567383 C15.1117356,50.1977541 15.0963549,50.2644038 15.079265,50.3566895 C15.062175,50.4489751 15.0485033,50.5156248 15.0382493,50.5566406 C15.0279954,50.5976565 15.0023609,50.7343738 14.961345,50.9667969 C14.9203292,51.1992199 14.8622243,51.349609 14.7870286,51.4179688 C14.7425948,51.4726565 14.682781,51.5 14.6075853,51.5 L14.3922532,51.4692383 C14.3136396,51.4624023 14.1974298,51.4624023 14.0436204,51.4692383 C13.8898111,51.4760743 13.7787282,51.4777832 13.7103685,51.4743652 C13.5018713,51.4641113 13.413005,51.3667001 13.4437669,51.1821289 C13.4506029,51.1445311 13.4711105,51.0795903 13.5052904,50.9873047 L13.5719407,50.7873535 C13.6129566,50.6403801 13.6727704,50.3959978 13.7513841,50.0541992 C13.8334158,49.7124006 13.980387,49.172367 14.1923021,48.434082 C14.4042172,47.6923791 14.5289718,47.2309579 14.5665697,47.0498047 C14.6041675,46.8686514 14.6434737,46.7250982 14.6844896,46.6191406 C14.7255054,46.5131831 14.7545578,46.4055181 14.7716478,46.2961426 C14.7887377,46.186767 14.828044,46.0363779 14.8895677,45.8449707 C14.9510914,45.6535635 14.9989425,45.4655771 15.0331224,45.2810059 C15.1014821,44.8127418 15.1920574,44.5786133 15.3048509,44.5786133 Z M22.7235521,47.3830566 L22.7235521,46.7626953 C22.7235521,46.4277327 22.6158871,46.1918952 22.400554,46.0551758 C22.1852209,45.9184563 21.9049503,45.8757322 21.5597337,45.927002 C21.4025064,45.9475099 21.3068042,45.991943 21.2726243,46.0603027 C21.2384445,46.1286625 21.2316086,46.2807605 21.2521165,46.5166016 C21.2726244,46.7524426 21.2692065,47.1044898 21.2418626,47.5727539 C21.2418626,47.9589863 21.2657882,48.1760252 21.31364,48.223877 C21.3614918,48.2717288 21.452067,48.2956543 21.5853685,48.2956543 L22.0416673,48.2648926 C22.3185242,48.2443847 22.5030926,48.1281749 22.5953782,47.9162598 C22.6295581,47.8342281 22.6603195,47.7590335 22.6876634,47.6906738 C22.7150073,47.6223141 22.7269701,47.5197761 22.7235521,47.3830566 Z M21.3495286,50.1669922 L21.3495286,50.2900391 C21.3495286,50.3173829 21.3563645,50.4335927 21.3700364,50.6386719 C21.4007983,51.1069359 21.3546562,51.3837886 21.2316087,51.4692383 C21.1837569,51.5034181 21.0983085,51.5153809 20.9752611,51.505127 C20.8522136,51.494873 20.7838549,51.4897461 20.7701829,51.4897461 L20.3395189,51.5102539 C20.2711592,51.5102539 20.2079274,51.503418 20.1498216,51.4897461 C20.0096842,51.4555662 19.9310717,51.3325206 19.9139818,51.1206055 C19.8968918,50.9086903 19.9020187,50.7309577 19.9293626,50.5874023 L19.9498704,49.0339355 C19.9567064,48.7365708 19.9601243,48.2768586 19.9601243,47.6547852 C19.9601243,47.0327117 19.9669602,46.6123058 19.9806322,46.3935547 C19.9943041,46.1748036 19.9874682,45.841555 19.9601243,45.3937988 C19.9396164,44.9460427 19.9464523,44.6948245 19.9806322,44.6401367 C20.014812,44.5854489 20.0848797,44.5581055 20.1908372,44.5581055 L20.4676927,44.5683594 C21.1478719,44.5341795 21.6024572,44.5239257 21.8314622,44.5375977 L22.3236497,44.5478516 C23.5336167,44.5478516 24.1283373,45.359611 24.1078294,46.9831543 C24.1078294,47.8273968 24.0548514,48.3776843 23.9488939,48.6340332 C23.8429363,48.8903821 23.7301445,49.0681147 23.610515,49.1672363 C23.4874675,49.2663579 23.3592949,49.3466794 23.2259935,49.4082031 C23.2362474,49.4936528 23.2823896,49.5978998 23.3644212,49.7209473 C23.4601248,49.8713386 23.5421552,50.0302726 23.610515,50.1977539 C23.6788747,50.3652352 23.7472334,50.5104974 23.8155931,50.6335449 C23.9318046,50.8420421 24.0087081,51.002685 24.046306,51.1154785 C24.1317556,51.3718275 24.0702328,51.5 23.8617357,51.5 L23.4156907,51.4794922 C23.4020188,51.4794922 23.3216973,51.491455 23.1747239,51.5153809 C23.0277506,51.5393068 22.9166677,51.5410157 22.841472,51.5205078 C22.7115885,51.486328 22.5765801,51.2863788 22.4364427,50.9206543 C22.371501,50.739501 22.3321947,50.635254 22.3185228,50.6079102 C22.3048508,50.5805663 22.2672536,50.4831551 22.2057298,50.3156738 C22.0724284,49.9328594 21.9391289,49.7072757 21.8058275,49.638916 C21.669108,49.5671383 21.5751148,49.5551755 21.523845,49.6030273 C21.4759932,49.6508791 21.4418139,49.6884764 21.421306,49.7158203 C21.4007981,49.7431642 21.3854174,49.7910153 21.3751634,49.859375 C21.3580735,49.9755865 21.3495286,50.0781246 21.3495286,50.1669922 Z M27.9735521,47.0600586 C27.9530442,47.0600586 27.8863944,47.2753885 27.7736009,47.7060547 C27.6608074,48.1367209 27.5975756,48.3964839 27.5839036,48.4853516 C27.5702317,48.5742192 27.5702317,48.6254882 27.5839036,48.6391602 C27.5975756,48.6494141 27.6710612,48.654541 27.8043626,48.654541 L28.311931,48.6750488 C28.4007986,48.6750488 28.4571945,48.6579592 28.4811204,48.6237793 C28.5050463,48.5895994 28.470867,48.4426283 28.3785814,48.1828613 C28.2897137,47.9230944 28.2418627,47.7829591 28.2350267,47.7624512 C28.1427411,47.2941871 28.0555837,47.0600586 27.9735521,47.0600586 Z M27.3326829,44.5786133 C27.4112966,44.5786133 27.5770664,44.5683595 27.8299974,44.5478516 C28.0829283,44.5273436 28.2709147,44.5239257 28.3939622,44.5375977 C28.5135917,44.5512696 28.6075849,44.5922848 28.6759447,44.6606445 C28.7477224,44.7290042 28.7938645,44.7973629 28.8143724,44.8657227 C28.8348803,44.9272464 28.8570969,45.0297844 28.8810228,45.1733398 C28.9049487,45.3168952 28.9237473,45.4091795 28.9374193,45.4501953 L29.6295579,48.0649414 C29.9713565,49.360358 30.1986492,50.2421852 30.3114427,50.7104492 C30.3251146,50.751465 30.3627119,50.8437493 30.4242357,50.9873047 C30.5336112,51.2436536 30.5182305,51.4111324 30.3780931,51.4897461 C30.3610032,51.523926 30.2601741,51.5256349 30.0756029,51.494873 C29.8910316,51.4641112 29.7816577,51.4487305 29.7474779,51.4487305 L29.3937181,51.5 C29.3492843,51.5 29.2945973,51.4897462 29.2296556,51.4692383 C29.0929362,51.3803706 28.9903981,51.0368682 28.9220384,50.4387207 C28.8912765,50.1652818 28.8092461,49.997803 28.6759447,49.9362793 C28.6554367,49.9157714 28.5802422,49.9123534 28.4503587,49.9260254 C28.3204753,49.9396973 28.178631,49.9465332 28.0248216,49.9465332 C27.8710122,49.9465332 27.7154962,49.9396973 27.5582689,49.9260254 C27.4010415,49.9123534 27.2967945,49.937988 27.2455247,50.0029297 C27.1976729,50.0644534 27.1669115,50.1157225 27.1532396,50.1567383 C27.1395676,50.1977541 27.1241869,50.2644038 27.107097,50.3566895 C27.0900071,50.4489751 27.0763353,50.5156248 27.0660814,50.5566406 C27.0558274,50.5976565 27.0301929,50.7343738 26.9891771,50.9667969 C26.9481612,51.1992199 26.8900564,51.349609 26.8148607,51.4179688 C26.7704269,51.4726565 26.710613,51.5 26.6354173,51.5 L26.4200853,51.4692383 C26.3414716,51.4624023 26.2252618,51.4624023 26.0714525,51.4692383 C25.9176431,51.4760743 25.8065602,51.4777832 25.7382005,51.4743652 C25.5297034,51.4641113 25.4408371,51.3667001 25.4715989,51.1821289 C25.4784349,51.1445311 25.4989425,51.0795903 25.5331224,50.9873047 L25.5997728,50.7873535 C25.6407886,50.6403801 25.7006025,50.3959978 25.7792161,50.0541992 C25.8612478,49.7124006 26.008219,49.172367 26.2201341,48.434082 C26.4320492,47.6923791 26.5568038,47.2309579 26.5944017,47.0498047 C26.6319995,46.8686514 26.6713058,46.7250982 26.7123216,46.6191406 C26.7533374,46.5131831 26.7823899,46.4055181 26.7994798,46.2961426 C26.8165697,46.186767 26.855876,46.0363779 26.9173997,45.8449707 C26.9789235,45.6535635 27.0267746,45.4655771 27.0609544,45.2810059 C27.1293141,44.8127418 27.2198894,44.5786133 27.3326829,44.5786133 Z M33.4081224,44.9682617 L33.3978685,46.0141602 C33.3978685,46.4243185 33.3944505,46.7233877 33.3876146,46.911377 C33.3807786,47.0959482 33.3910324,47.2019042 33.4183763,47.229248 C33.4457202,47.2565919 33.4645188,47.2770995 33.4747728,47.2907715 C33.4952807,47.3181154 33.6251622,47.3317871 33.8644212,47.3317871 L34.5616868,47.3317871 C34.7838559,47.3317871 34.9239912,47.3198243 34.982097,47.2958984 C35.0402028,47.2719725 35.0726731,47.2309573 35.0795091,47.1728516 C35.0863451,47.1181638 35.089763,47.0754396 35.089763,47.0446777 C35.089763,47.0139159 35.0795092,46.9301765 35.0590013,46.793457 C35.0384934,46.6567376 35.0402023,46.3063993 35.0641282,45.7424316 C35.0880541,45.178464 35.1000169,44.8264167 35.1000169,44.6862793 C35.1000169,44.5461419 35.2811674,44.5017087 35.6434739,44.5529785 C35.8041193,44.5769044 35.8946945,44.5888672 35.9152025,44.5888672 C35.9357104,44.5888672 36.0109049,44.5837403 36.1407884,44.5734863 C36.2706719,44.5632324 36.3732099,44.5888669 36.4484056,44.6503906 C36.5236013,44.7153324 36.5441089,44.8605946 36.509929,45.0861816 C36.4723312,45.3083507 36.4501146,45.450195 36.4432786,45.5117188 C36.4364427,45.5732425 36.4381516,45.913327 36.4484056,46.5319824 C36.4586595,47.1540558 36.4637864,47.7299778 36.4637864,48.2597656 C36.4637864,48.7895534 36.4654954,49.2697732 36.4689134,49.7004395 C36.4723314,50.1276877 36.4723314,50.3994135 36.4689134,50.515625 C36.4654954,50.6318365 36.4740403,50.7822256 36.4945482,50.9667969 C36.5150561,51.1513681 36.5116381,51.2949214 36.4842943,51.3974609 C36.4330245,51.4794926 36.2433291,51.5273437 35.9152025,51.5410156 C35.5870758,51.5546876 35.370037,51.5427248 35.2640794,51.505127 C35.1581219,51.4675291 35.100017,51.4111332 35.089763,51.3359375 C35.0760911,51.2607418 35.079509,51.1718755 35.1000169,51.0693359 C35.1068529,50.9052726 35.1068529,50.573733 35.1000169,50.074707 C35.0931809,49.5756811 35.091472,49.2543952 35.09489,49.1108398 C35.0983079,48.9672844 35.1000169,48.8664554 35.1000169,48.8083496 C35.1000169,48.6408683 34.9103215,48.5708006 34.5309251,48.5981445 C34.3907877,48.6083985 34.3002124,48.6135254 34.2591966,48.6135254 C34.2181808,48.6135254 34.1344414,48.6083985 34.0079759,48.5981445 C33.7106111,48.5742186 33.5294606,48.5810545 33.4645189,48.6186523 C33.3995771,48.6562502 33.3671068,48.7622062 33.3671068,48.9365234 L33.3773607,49.3261719 C33.3705247,49.3261719 33.3705247,49.476561 33.3773607,49.7773438 L33.3773607,50.2285156 L33.3978685,51.1103516 C33.3978685,51.247071 33.3824878,51.3427732 33.3517259,51.3974609 C33.324382,51.4521487 33.2150081,51.4931639 33.0236009,51.5205078 C32.8321937,51.5478517 32.6339535,51.5461427 32.4288743,51.5153809 C32.2237952,51.484619 32.1041675,51.4504396 32.0699876,51.4128418 C32.0323898,51.375244 32.0153001,51.322266 32.0187181,51.2539062 C32.046062,50.7172825 32.042644,49.956792 32.0084642,48.9724121 C31.9742843,47.9846142 31.9623216,47.3334977 31.9725755,47.019043 C31.9828295,46.7045883 31.9896653,46.4448252 31.9930833,46.2397461 C31.9965013,46.0346669 31.9999192,45.8039564 32.0033372,45.5476074 C32.0067552,45.2912585 32.0084642,45.1152349 32.0084642,45.0195312 C32.0084642,44.9238276 32.0101731,44.855469 32.0135911,44.8144531 C32.0135911,44.7734373 32.018718,44.734131 32.028972,44.6965332 C32.039226,44.6555174 32.0853681,44.6110842 32.1673997,44.5632324 C32.2528494,44.5119626 32.5570456,44.5136716 33.0799974,44.5683594 C33.1996269,44.5922853 33.2714035,44.6162108 33.2953294,44.6401367 C33.3192553,44.6640626 33.338054,44.6794433 33.3517259,44.6862793 C33.3653978,44.6931153 33.3739427,44.7102049 33.3773607,44.7375488 C33.3841966,44.7648927 33.3893235,44.7819824 33.3927415,44.7888184 C33.4029955,44.8127443 33.4081224,44.8725581 33.4081224,44.9682617 Z M38.4376634,51.3974609 L38.4376634,49.8388672 C38.4376634,49.7158197 38.4462082,49.4526387 38.4632982,49.0493164 C38.4803881,48.6459941 38.4769702,48.2460957 38.4530443,47.8496094 C38.4291184,47.453123 38.4257004,47.0190453 38.4427904,46.5473633 C38.4598803,46.0825172 38.4684251,45.7526865 38.4684251,45.5578613 L38.4171556,44.8862305 C38.4239916,44.6743153 38.4872233,44.5563966 38.6068529,44.5324707 C38.6752126,44.5222167 38.7640789,44.5239257 38.8734544,44.5375977 C38.98283,44.5512696 39.0511887,44.5581055 39.0785325,44.5581055 C39.1058764,44.5581055 39.2032876,44.5444337 39.3707689,44.5170898 C39.5416682,44.489746 39.6715497,44.5136715 39.7604173,44.5888672 C39.845867,44.6708988 39.8749194,44.8452135 39.8475755,45.1118164 C39.8202316,45.3784193 39.8185227,45.6757796 39.8424486,46.0039062 C39.8697924,46.3320329 39.8732104,46.9558059 39.8527025,47.8752441 C39.8321945,48.7981003 39.8253587,49.4252913 39.8321947,49.7568359 L39.8116868,50.8898926 C39.8116868,50.9035645 39.8202317,50.9958488 39.8373216,51.166748 C39.8544115,51.3376473 39.8424488,51.4418943 39.8014329,51.4794922 C39.7604171,51.513672 39.6886405,51.5307617 39.5861009,51.5307617 L39.0221361,51.5 C38.6324857,51.5444338 38.4376634,51.5102545 38.4376634,51.3974609 Z M44.4823411,47.3830566 L44.4823411,46.7626953 C44.4823411,46.4277327 44.3746762,46.1918952 44.1593431,46.0551758 C43.94401,45.9184563 43.6637393,45.8757322 43.3185228,45.927002 C43.1612954,45.9475099 43.0655933,45.991943 43.0314134,46.0603027 C42.9972335,46.1286625 42.9903977,46.2807605 43.0109056,46.5166016 C43.0314135,46.7524426 43.0279956,47.1044898 43.0006517,47.5727539 C43.0006517,47.9589863 43.0245772,48.1760252 43.072429,48.223877 C43.1202808,48.2717288 43.2108561,48.2956543 43.3441575,48.2956543 L43.8004564,48.2648926 C44.0773132,48.2443847 44.2618817,48.1281749 44.3541673,47.9162598 C44.3883472,47.8342281 44.4191086,47.7590335 44.4464525,47.6906738 C44.4737964,47.6223141 44.4857591,47.5197761 44.4823411,47.3830566 Z M43.1083177,50.1669922 L43.1083177,50.2900391 C43.1083177,50.3173829 43.1151536,50.4335927 43.1288255,50.6386719 C43.1595874,51.1069359 43.1134453,51.3837886 42.9903978,51.4692383 C42.942546,51.5034181 42.8570976,51.5153809 42.7340501,51.505127 C42.6110026,51.494873 42.5426439,51.4897461 42.528972,51.4897461 L42.0983079,51.5102539 C42.0299482,51.5102539 41.9667164,51.503418 41.9086107,51.4897461 C41.7684732,51.4555662 41.6898608,51.3325206 41.6727708,51.1206055 C41.6556809,50.9086903 41.6608078,50.7309577 41.6881517,50.5874023 L41.7086595,49.0339355 C41.7154955,48.7365708 41.7189134,48.2768586 41.7189134,47.6547852 C41.7189134,47.0327117 41.7257493,46.6123058 41.7394212,46.3935547 C41.7530932,46.1748036 41.7462573,45.841555 41.7189134,45.3937988 C41.6984055,44.9460427 41.7052414,44.6948245 41.7394212,44.6401367 C41.7736011,44.5854489 41.8436687,44.5581055 41.9496263,44.5581055 L42.2264818,44.5683594 C42.9066609,44.5341795 43.3612462,44.5239257 43.5902513,44.5375977 L44.0824388,44.5478516 C45.2924058,44.5478516 45.8871264,45.359611 45.8666185,46.9831543 C45.8666185,47.8273968 45.8136405,48.3776843 45.7076829,48.6340332 C45.6017254,48.8903821 45.4889335,49.0681147 45.369304,49.1672363 C45.2462565,49.2663579 45.118084,49.3466794 44.9847825,49.4082031 C44.9950365,49.4936528 45.0411786,49.5978998 45.1232103,49.7209473 C45.2189139,49.8713386 45.3009443,50.0302726 45.369304,50.1977539 C45.4376637,50.3652352 45.5060224,50.5104974 45.5743822,50.6335449 C45.6905937,50.8420421 45.7674972,51.002685 45.805095,51.1154785 C45.8905447,51.3718275 45.8290219,51.5 45.6205247,51.5 L45.1744798,51.4794922 C45.1608079,51.4794922 45.0804864,51.491455 44.933513,51.5153809 C44.7865396,51.5393068 44.6754567,51.5410157 44.6002611,51.5205078 C44.4703776,51.486328 44.3353692,51.2863788 44.1952318,50.9206543 C44.13029,50.739501 44.0909838,50.635254 44.0773118,50.6079102 C44.0636399,50.5805663 44.0260426,50.4831551 43.9645189,50.3156738 C43.8312174,49.9328594 43.697918,49.7072757 43.5646165,49.638916 C43.4278971,49.5671383 43.3339039,49.5551755 43.2826341,49.6030273 C43.2347823,49.6508791 43.200603,49.6884764 43.180095,49.7158203 C43.1595871,49.7431642 43.1442064,49.7910153 43.1339525,49.859375 C43.1168625,49.9755865 43.1083177,50.0781246 43.1083177,50.1669922 Z M51.0909837,47.8085938 C51.0738938,47.4326153 51.0653489,47.135255 51.0653489,46.9165039 C51.0653489,46.6977528 51.0260427,46.5029305 50.947429,46.3320312 C50.8688154,46.161132 50.7235531,46.0346684 50.511638,45.9526367 C50.2997229,45.8706051 50.0878109,45.8535154 49.8758958,45.9013672 C49.6639807,45.949219 49.4879571,46.0449212 49.3478197,46.1884766 C49.2111002,46.332032 49.1307788,46.5012197 49.1068529,46.6960449 C49.082927,46.8942881 49.0726731,47.0822745 49.0760911,47.2600098 C49.0795091,47.434327 49.0812181,47.541992 49.0812181,47.5830078 L49.0709642,49.0646973 C49.0709642,49.611575 49.235025,49.9687492 49.5631517,50.1362305 C49.730633,50.2182621 49.937418,50.2524415 50.183513,50.2387695 C50.429608,50.2250976 50.6278482,50.1601568 50.7782396,50.0439453 C50.9286309,49.9277338 51.0209152,49.7636729 51.055095,49.5517578 C51.0892749,49.3398427 51.1080735,49.0903335 51.1114915,48.8032227 C51.1149095,48.5161118 51.1080736,48.1845722 51.0909837,47.8085938 Z M50.0348314,51.6025391 C49.1188112,51.6025391 48.4745305,51.3820823 48.10197,50.9411621 C47.8285312,50.6198714 47.6918138,50.0507853 47.6918138,49.2338867 C47.6918138,49.0253896 47.6849779,48.6579616 47.671306,48.1315918 C47.657634,47.605222 47.657634,47.1899429 47.671306,46.8857422 C47.6849779,46.5815414 47.6986497,46.3559578 47.7123216,46.2089844 C47.7259935,46.062011 47.7772626,45.8654797 47.8661302,45.6193848 C47.9549978,45.3698718 48.101969,45.149415 48.3070482,44.9580078 C48.5121273,44.7666006 48.7821441,44.640137 49.1171068,44.5786133 C49.9374234,44.4282219 50.6637345,44.4555654 51.2960618,44.6606445 C51.6310245,44.7700201 51.865153,44.8947747 51.9984544,45.0349121 C52.1317559,45.1750495 52.227458,45.3032221 52.2855638,45.4194336 C52.3470875,45.5356451 52.4017745,45.7304674 52.4496263,46.0039062 C52.4974781,46.2739271 52.5231126,46.5627426 52.5265306,46.8703613 C52.5299486,47.1779801 52.5248217,47.4599597 52.5111497,47.7163086 C52.4974778,47.9726575 52.4940599,48.208495 52.5008958,48.4238281 C52.5077318,48.6391612 52.5043139,49.0493134 52.4906419,49.6542969 C52.470134,50.4951214 52.1488482,51.0642075 51.5267747,51.3615723 C51.1918121,51.5222176 50.6945026,51.6025391 50.0348314,51.6025391 Z" id="harahiro" fill="#FFFFFF" fill-rule="nonzero"></path>
            </g>
        </g>
    </g>
</svg>